<?xml version="1.0" standalone="no"?><svg preserveAspectRatio ="none" xmlns="http://www.w3.org/2000/svg" viewBox="0 0 1440 320"><path fill="#e6e9f0" fill-opacity="1" d="M0,192L24,170.7C48,149,96,107,144,106.7C192,107,240,149,288,160C336,171,384,149,432,165.3C480,181,528,235,576,261.3C624,288,672,288,720,245.3C768,203,816,117,864,96C912,75,960,117,1008,144C1056,171,1104,181,1152,160C1200,139,1248,85,1296,101.3C1344,117,1392,203,1416,245.3L1440,288L1440,0L1416,0C1392,0,1344,0,1296,0C1248,0,1200,0,1152,0C1104,0,1056,0,1008,0C960,0,912,0,864,0C816,0,768,0,720,0C672,0,624,0,576,0C528,0,480,0,432,0C384,0,336,0,288,0C240,0,192,0,144,0C96,0,48,0,24,0L0,0Z"></path></svg>