<svg preserveAspectRatio ="none" xmlns="http://www.w3.org/2000/svg" viewBox="0 0 1440 320"><path fill="#0044AA" fill-opacity="1" d="M0,192L24,170.7C48,149,96,107,144,106.7C192,107,240,149,288,160C336,171,384,149,432,165.3C480,181,528,235,576,261.3C624,288,672,288,720,245.3C768,203,816,117,864,96C912,75,960,117,1008,144C1056,171,1104,181,1152,160C1200,139,1248,85,1296,101.3C1344,117,1392,203,1416,245.3L1440,288L1440,320L1416,320C1392,320,1344,320,1296,320C1248,320,1200,320,1152,320C1104,320,1056,320,1008,320C960,320,912,320,864,320C816,320,768,320,720,320C672,320,624,320,576,320C528,320,480,320,432,320C384,320,336,320,288,320C240,320,192,320,144,320C96,320,48,320,24,320L0,320Z"></path></svg>